<svg xmlns="http://www.w3.org/2000/svg" viewBox="0 0 581 581">
  <defs>
    <style>
      .cls-1{fill:none;}
      .cls-1,.cls-2{stroke:#000;stroke-miterlimit:10;stroke-width:5px;}
      .cls-2{fill:#e5d1b5;}
    </style>
  </defs>
  <title>model</title>
  <g id="Layer_2" data-name="Layer 2">
    <g id="Layer_1-2" data-name="Layer 1">
      <circle class="cls-1" cx="290.5" cy="290.5" r="288"/>
      <path class="cls-2" d="M326.5,398.5a36,36,0,1,1-59-27.74,72.29,72.29,0,0,0,45.9,0,36,36,0,0,1,13,27.74Z"/>
      <path class="cls-2" d="M110.58,477.1q.07,3.71.27,7.39a35.75,35.75,0,0,1-.35-5C110.5,478.69,110.53,477.89,110.58,477.1Z"/>
      <path class="cls-2" d="M470.5,479.5a35.75,35.75,0,0,1-.35,5q.2-3.69.27-7.39C470.47,477.89,470.5,478.69,470.5,479.5Z"/>
      <path class="cls-2" d="M114.48,518.47q-8-6.22-15.63-13A289.19,289.19,0,0,1,74.24,480.7a36.08,36.08,0,0,1,37.11,12c.28,3.8.65,7.58,1.08,11.34Q113.27,511.31,114.48,518.47Z"/>
      <path class="cls-2" d="M470.5,470.5c0,2.21,0,4.41-.08,6.6q-.07,3.71-.27,7.39-.18,4.11-.5,8.19c-.28,3.8-.65,7.58-1.08,11.34q-.84,7.29-2.05,14.45c-1.48,1.14-3,2.27-4.46,3.38q-11.12,8.25-23,15.43a286.42,286.42,0,0,1-147.61,41.21h-1.86A286.42,286.42,0,0,1,142,537.28q-11.89-7.17-23-15.43c-1.5-1.11-3-2.24-4.46-3.38q-1.2-7.17-2-14.45c-.43-3.76-.8-7.54-1.08-11.34q-.31-4.08-.5-8.19-.2-3.69-.27-7.39c-.06-2.19-.08-4.39-.08-6.6q0-7.66.4-15.22,7.79-3.15,15.78-5.83,9.9-3.33,20.11-5.95a288.19,288.19,0,0,1,70.78-9H363.43a288.19,288.19,0,0,1,70.78,9q10.2,2.61,20.11,5.95,8,2.69,15.78,5.83Q470.51,462.84,470.5,470.5Z"/>
      <path class="cls-2" d="M506.76,480.7a289.18,289.18,0,0,1-24.61,24.78q-7.58,6.77-15.63,13,1.2-7.17,2.05-14.45c.43-3.76.8-7.54,1.08-11.34a36.08,36.08,0,0,1,37.11-12Z"/>
    </g>
    <g id="Layer_4" data-name="Layer 4">
      <path class="cls-2" d="M401,182.5a286.7,286.7,0,0,1-44.16,153.32q-4.1,6.51-8.53,12.78a72,72,0,0,1-110.62,0q-4.43-6.27-8.53-12.78A286.7,286.7,0,0,1,185,182.5a108,108,0,0,1,216,0Z"/>
    </g>
  </g>
</svg>
