<svg xmlns="http://www.w3.org/2000/svg" viewBox="0 0 581 581">
  <defs>
    <style>
      .cls-1{fill:#ca9b54;}
      .cls-2{fill:none;}
      .cls-2,.cls-3,.cls-4,.cls-5{stroke:#000;stroke-miterlimit:10;stroke-width:5px;}
      .cls-3{fill:#70d1aa;}
      .cls-4{fill:#ffcece;}
      .cls-5{fill:#fc0;}
    </style>
  </defs>
  <title>palette</title>
  <g id="Layer_2" data-name="Layer 2">
    <g id="Layer_1-2" data-name="Layer 1">
      <path class="cls-1" d="M494.15,86.85C381.68-25.62,199.33-25.62,86.85,86.85s-112.47,294.82,0,407.29c80.18,80.18,195.86,103.2,296.43,69.06q4.1-1.39,8.17-2.91a36,36,0,0,0,9.36-57.66l-59.4-59.4a72,72,0,0,1-1.49-100.29c.49-.52,1-1,1.49-1.53s1-1,1.53-1.49a72,72,0,0,1,100.29,1.49l59.4,59.4a36,36,0,0,0,57.66-9.36q1.53-4.07,2.91-8.17C597.35,282.72,574.33,167,494.15,86.85Zm0,203.65a36,36,0,1,1,0-50.91A36,36,0,0,1,494.15,290.5Z"/>
      <path class="cls-2" d="M494.15,86.85C381.68-25.62,199.33-25.62,86.85,86.85s-112.47,294.82,0,407.29c80.18,80.18,195.86,103.2,296.43,69.06q4.1-1.39,8.17-2.91a36,36,0,0,0,9.36-57.66l-59.4-59.4a72,72,0,0,1-1.49-100.29c.49-.52,1-1,1.49-1.53s1-1,1.53-1.49a72,72,0,0,1,100.29,1.49l59.4,59.4a36,36,0,0,0,57.66-9.36q1.53-4.07,2.91-8.17C597.35,282.72,574.33,167,494.15,86.85Zm0,203.65a36,36,0,1,1,0-50.91A36,36,0,0,1,494.15,290.5Z"/>
      <path class="cls-3" d="M226.59,384a36,36,0,1,1-37.92,59.24,36,36,0,1,1-50.91-50.91A36,36,0,1,1,197,354.41,35.93,35.93,0,0,0,226.59,384Z"/>
      <path class="cls-2" d="M220.06,382.27a35.74,35.74,0,0,1,6.53,1.73A35.74,35.74,0,0,1,220.06,382.27Z"/>
      <path class="cls-2" d="M197,354.41a35.74,35.74,0,0,1,1.73,6.53A35.74,35.74,0,0,1,197,354.41Z"/>
      <path class="cls-4" d="M239.59,137.77a36,36,0,0,1,0,50.91,36,36,0,1,1-50.91,50.91,36,36,0,1,1-50.91-50.91,36,36,0,1,1,50.91-50.91A36,36,0,0,1,239.59,137.77Z"/>
      <path class="cls-5" d="M443.24,137.77A36,36,0,0,1,430,197.09a36,36,0,0,0-29.29,29.29,36,36,0,1,1-59.32-37.7,36,36,0,1,1,50.91-50.91A36,36,0,0,1,443.24,137.77Z"/>
      <path class="cls-2" d="M400.73,226.37a35.62,35.62,0,0,1,1.61-6.06A35.61,35.61,0,0,1,400.73,226.37Z"/>
      <path class="cls-2" d="M430,197.09a35.61,35.61,0,0,1-6.06,1.61A35.62,35.62,0,0,1,430,197.09Z"/>
      <path class="cls-2" d="M563.21,383.28a35.93,35.93,0,0,1-2.91,8.17Q561.83,387.38,563.21,383.28Z"/>
      <path class="cls-2" d="M391.45,560.3a35.93,35.93,0,0,1-8.17,2.91Q387.39,561.82,391.45,560.3Z"/>
      <circle class="cls-2" cx="290.5" cy="290.5" r="288" transform="translate(-120.33 290.5) rotate(-45)"/>
    </g>
  </g>
</svg>
