<svg xmlns="http://www.w3.org/2000/svg" viewBox="0 0 581 581">
  <defs>
    <style>
      .cls-1{fill:#666;}
      .cls-1,.cls-2,.cls-3,.cls-4{stroke:#000;stroke-miterlimit:10;stroke-width:5px;}
      .cls-2{fill:gray;}
      .cls-3{fill:#999;}
      .cls-4{fill:#b3b3b3;}
    </style>
  </defs>
  <title>aperture</title>
  <g id="Layer_2" data-name="Layer 2">
    <g id="Layer_1-2" data-name="Layer 1">
      <path id='ink' class="cls-1" d="M569.42,218.5H260.5L436.69,42.31A288.51,288.51,0,0,1,569.42,218.5Z"/>
      <path class="cls-1" d="M538.69,436.69A288.51,288.51,0,0,1,362.5,569.42V260.5Z"/>
      <path class="cls-2" d="M362.5,319.5V569.42a288.86,288.86,0,0,1-218.82-31.1L334.56,347.44a72,72,0,0,0,12.88-12.88Z"/>
      <path class="cls-3" d="M319.5,362.5,143.68,538.32A288.51,288.51,0,0,1,11.58,362.5Z"/>
      <path class="cls-3" d="M218.5,11.58V320.5L42.31,144.31A288.51,288.51,0,0,1,218.5,11.58Z"/>
      <path class="cls-1" d="M578.5,290.5a286.72,286.72,0,0,1-39.81,146.19L320.5,218.5H569.42A288.25,288.25,0,0,1,578.5,290.5Z"/>
      <line class="cls-1" x1="347.44" y1="334.56" x2="334.56" y2="347.44"/>
      <path class="cls-4" d="M260.5,362.5H11.58A288.85,288.85,0,0,1,42.31,144.31Z"/>
      <path class="cls-2" d="M436.69,42.31,218.5,260.5V11.58A288.86,288.86,0,0,1,436.69,42.31Z"/>
    </g>
  </g>
</svg>
