<svg xmlns="http://www.w3.org/2000/svg" viewBox="0 0 581 581">
  <defs>
    <style>
      .cls-1,.cls-2{fill:none;}
      .cls-1,.cls-3,.cls-4,.cls-5{stroke:#000;}
      .cls-1,.cls-2,.cls-3,.cls-4,.cls-5{stroke-miterlimit:10;stroke-width:5px;}
      .cls-2{stroke:#97c2d9;}
      .cls-3{fill:#e6e6e6;}
      .cls-4{fill:#fc0;}
      .cls-5{fill:#333;}
    </style>
  </defs>
  <title>Pen</title>
  <g id="Layer_2" data-name="Layer 2">
    <g id="Layer_1-2" data-name="Layer 1">
      <path id='ink' class="cls-2" d="M82.64,489.85a72,72,0,0,0,99.67-2.08,72,72,0,0,1,101.82,0,72,72,0,0,0,101.82,0,72.1,72.1,0,0,1,21.61-14.87"/>
          <path id='nib' class="cls-3" d="M435.3,259.22a286.68,286.68,0,0,1-43.88-13.95,286.91,286.91,0,0,1-94.56-63L182.31,296.85a287.21,287.21,0,0,1,63,94.57,286,286,0,0,1,13.94,43.88l3.84-.05A287.7,287.7,0,0,1,399.7,468.58q4,2.09,7.86,4.32A288.33,288.33,0,0,1,467.1,518c.91-.71,1.83-1.42,2.72-2.15q.94-.74,1.86-1.5c.48-.37,1-.76,1.41-1.15s.93-.76,1.4-1.14q1.47-1.23,2.94-2.49,1.8-1.53,3.59-3.11l3.25-2.92c1-.88,1.93-1.76,2.89-2.66l.75-.72c1-.94,2-1.88,3-2.84s1.92-1.86,2.87-2.81l.39-.39q1.62-1.62,3.2-3.26,1.44-1.48,2.85-3l.71-.76c.9-.95,1.78-1.92,2.66-2.88s2-2.16,2.93-3.26,2.08-2.38,3.11-3.59c.83-1,1.67-1.95,2.48-2.93l1.15-1.4c.39-.46.77-.94,1.15-1.41s1-1.23,1.49-1.86c.73-.9,1.44-1.81,2.16-2.72A287.15,287.15,0,0,1,435.3,259.22Zm-43,133.09h0l-.41.38c-.43.43-.88.84-1.33,1.23s-.91.78-1.38,1.15l-.7.55c-.48.36-.95.7-1.44,1l-.73.48c-.39.26-.78.5-1.18.73l-.39.23c-.48.27-1,.54-1.46.79s-1,.52-1.55.75-.89.4-1.34.58l-.35.14c-.5.2-1,.38-1.51.55s-1.08.36-1.63.52-1,.28-1.49.4-1.2.27-1.82.39-1.12.2-1.68.28-1.12.15-1.68.2-1.1.09-1.66.12h0c-.56,0-1.12,0-1.69,0a36.09,36.09,0,0,1-31-17.71c-.46-.77-.88-1.55-1.27-2.34-.52-1.05-1-2.13-1.4-3.22l-.3-.82c-.19-.55-.37-1.1-.53-1.66q-.14-.42-.24-.84c-.15-.56-.29-1.12-.41-1.69s-.24-1.13-.33-1.7c-.06-.35-.11-.69-.15-1s-.07-.43-.09-.65,0-.24,0-.36a2.58,2.58,0,0,1,0-.29c-.07-.6-.12-1.2-.14-1.81a1.77,1.77,0,0,1,0-.23v0a31.1,31.1,0,0,1,0-3.48c0-.17,0-.35,0-.52,0-.64.1-1.28.18-1.91a8.08,8.08,0,0,1,.11-.86c.05-.36.1-.72.17-1.08s.18-1,.29-1.48.2-.92.33-1.38c.17-.67.37-1.33.59-2a7.74,7.74,0,0,1,.26-.77,0,0,0,0,1,0,0c.11-.33.23-.67.36-1,.18-.49.38-1,.59-1.45l0-.06c.22-.5.45-1,.69-1.49s.35-.69.54-1l.31-.58a.74.74,0,0,1,.07-.12c.21-.39.44-.78.68-1.16s.41-.67.64-1l.36-.54c.21-.32.44-.63.67-.94.36-.49.73-1,1.13-1.46l.4-.48.17-.2q.33-.39.69-.78c.38-.42.78-.84,1.19-1.25a36,36,0,1,1,50.91,50.91Z"/>
      <path id='body' class="cls-5" d="M252.37,125,125,252.36a286.53,286.53,0,0,0-90.81-34.49c0-.16,0-.33,0-.49a35.94,35.94,0,0,1-17.31-9.62c-.59-.59-1.16-1.2-1.7-1.83.4-1.29.79-2.58,1.21-3.86.29-.91.59-1.81.89-2.71l.27-.84q.36-1.09.75-2.19,1.14-3.34,2.38-6.64c.26-.7.52-1.41.8-2.11.81-2.16,1.66-4.29,2.54-6.42.3-.77.62-1.52.95-2.29.89-2.15,1.83-4.3,2.8-6.45.29-.66.6-1.33.91-2s.57-1.26.88-1.89c.18-.41.36-.81.55-1.2.39-.8.77-1.61,1.16-2.41.13-.27.25-.53.39-.8.51-1.06,1-2.13,1.58-3.19a1.58,1.58,0,0,1,.13-.26c.6-1.19,1.21-2.37,1.83-3.55,1.26-2.42,2.57-4.83,3.91-7.22.66-1.19,1.34-2.38,2-3.57l0,0c.69-1.19,1.39-2.38,2.09-3.56.09-.17.19-.31.29-.47.58-1,1.18-1.94,1.78-2.91,1-1.65,2-3.28,3.09-4.92l2.18-3.31c.69-1,1.38-2.08,2.09-3.09.34-.51.68-1,1-1.51s.62-.91.94-1.35c.44-.64.9-1.28,1.36-1.91.76-1.09,1.54-2.16,2.34-3.23q1.33-1.83,2.71-3.64l2.32-3,1-1.21c.69-.87,1.39-1.74,2.09-2.6.1-.14.21-.28.32-.41.89-1.1,1.78-2.17,2.68-3.26.06-.07.12-.13.17-.2,1-1.16,2-2.33,3-3.48s2-2.32,3-3.46,2.06-2.29,3.11-3.42q3-3.3,6.2-6.52c.64-.66,1.3-1.32,2-2s1.31-1.31,2-1.95q3.22-3.16,6.52-6.2c1.14-1,2.27-2.09,3.42-3.11s2.29-2,3.46-3,2.32-2,3.49-3l.19-.17c1.09-.91,2.17-1.8,3.26-2.68.13-.11.27-.23.41-.33.86-.7,1.73-1.4,2.6-2.08.41-.33.81-.65,1.22-1,1-.78,2-1.56,3-2.32,1.2-.92,2.42-1.83,3.63-2.72s2.14-1.57,3.23-2.34c.63-.46,1.27-.91,1.91-1.36l1.35-.94c.5-.35,1-.7,1.51-1,1-.7,2.05-1.4,3.09-2.08s2.21-1.46,3.32-2.19c1.63-1,3.26-2.08,4.91-3.09l2.91-1.78.47-.28c1.19-.71,2.38-1.4,3.56-2.09,0,0,0,0,.05,0l3.56-2c2.39-1.34,4.8-2.65,7.22-3.91,1.18-.61,2.36-1.23,3.55-1.82l.26-.13c1.06-.54,2.13-1.07,3.2-1.59l.79-.38c.81-.4,1.61-.78,2.42-1.16l1.19-.56,1.9-.88,2-.91q3.21-1.45,6.45-2.8l2.29-.95c2.12-.87,4.26-1.72,6.41-2.53.7-.28,1.41-.55,2.12-.8q3.3-1.24,6.64-2.39c.72-.26,1.45-.5,2.19-.75l.83-.26c.9-.31,1.81-.6,2.72-.89,1.28-.42,2.56-.82,3.85-1.21.63.54,1.24,1.11,1.83,1.7a35.73,35.73,0,0,1,9.62,17.31h.49A286.61,286.61,0,0,0,252.37,125Z"/>
      <line id='nib-divide' class="cls-1" x1="392.32" y1="392.32" x2="494.14" y2="494.14"/>
      <path id='nib-hole' class="cls-1" d="M392.32,392.31h0l-.41.38c-.44.42-.88.83-1.33,1.23s-.91.78-1.38,1.15l-.7.55c-.48.35-.95.7-1.44,1l-.73.48-1.18.73-.39.23c-.48.27-1,.54-1.46.79s-1,.52-1.55.75-.89.4-1.34.58l-.35.14c-.5.2-1,.38-1.51.55s-1.08.36-1.63.52-1,.28-1.49.4-1.2.27-1.82.39-1.12.2-1.68.28-1.12.15-1.68.2-1.1.09-1.66.12h0c-.56,0-1.12,0-1.69,0a36.09,36.09,0,0,1-31-17.71c-.46-.77-.88-1.55-1.27-2.34-.52-1.05-1-2.13-1.4-3.22l-.3-.82c-.19-.55-.36-1.1-.53-1.66q-.14-.42-.24-.84c-.15-.56-.28-1.12-.41-1.69s-.23-1.13-.33-1.7c-.06-.35-.11-.69-.15-1s-.07-.43-.09-.65,0-.24,0-.36a2.58,2.58,0,0,1,0-.29v-.08c0-.29-.06-.58-.08-.87l-.06-.86a1.77,1.77,0,0,1,0-.23c0-.23,0-.45,0-.68,0-.4,0-.81,0-1.22,0,0,0-.08,0-.12,0-.34,0-.67,0-1,0-.16,0-.33,0-.49s0-.35,0-.52c0-.64.1-1.28.18-1.91,0-.29.07-.58.11-.86s.1-.72.17-1.08.19-1,.29-1.48.21-.92.33-1.38c.17-.67.37-1.33.59-2,.08-.26.17-.52.26-.77a0,0,0,0,1,0,0c.11-.33.23-.67.36-1,.19-.49.38-1,.59-1.45l0-.06c.22-.5.45-1,.69-1.49s.35-.69.54-1l.31-.58a.74.74,0,0,1,.07-.12c.21-.39.44-.78.68-1.16s.42-.67.64-1l.36-.54c.21-.32.44-.63.67-.94.36-.49.73-1,1.13-1.46l.4-.48.17-.2q.33-.39.69-.78c.38-.42.78-.84,1.19-1.25a36,36,0,1,1,50.91,50.91Z"/>
      <path id='spacer' class="cls-4" d="M296.86,182.3,182.31,296.85A288.82,288.82,0,0,0,125,252.36L252.37,125A288.08,288.08,0,0,0,296.86,182.3Z"/>
      <circle id='outer-circle' class="cls-1" cx="290.5" cy="290.5" r="288"/>
    </g>
  </g>
</svg>
