<svg xmlns="http://www.w3.org/2000/svg" viewBox="0 0 581 581">
  <defs>
    <style>.cls-1{fill:#e6e6e6;}.cls-1,.cls-2{stroke:#000;stroke-miterlimit:10;stroke-width:5px;}.cls-2{fill:none;}
    </style>
  </defs>
  <title>wrench</title>
  <g id="Layer_2" data-name="Layer 2">
    <g id="Layer_1-2" data-name="Layer 1">
      <path class="cls-1" d="M494.15,494.15A287,287,0,0,1,391.45,560.3q-4.06,1.52-8.16,2.91a36.23,36.23,0,0,1-15.92,0,35.85,35.85,0,0,1-17.47-9.65l-59.4-59.4a36,36,0,0,0-50.91,0,179.12,179.12,0,0,1-88.42,48.49A289.92,289.92,0,0,1,38.36,429.83a179.12,179.12,0,0,1,48.49-88.42,36,36,0,0,0,0-50.91l-59.4-59.4a35.85,35.85,0,0,1-9.65-17.47,36.21,36.21,0,0,1,0-15.9s0,0,0,0c.92-2.74,1.89-5.46,2.91-8.17h0A286.9,286.9,0,0,1,86.85,86.86C188.34-14.64,346.72-24.55,459.31,57.13q4.7,3.38,9.26,7a36,36,0,0,1,4.68,43.61L316,265A36,36,0,0,0,316,316l50.91,50.91a36,36,0,0,0,50.91,0l99.7-99.7a36,36,0,0,1,61,19.71q.08,6-.08,12.06A287.06,287.06,0,0,1,494.15,494.15Z"/>
      <circle class="cls-2" cx="290.5" cy="290.5" r="288" transform="translate(-120.33 290.5) rotate(-45)"/>
    </g>
  </g>
</svg>
