  <svg
      height="40px"
      viewBox="0 0 512 512"
      width="40px"
      xmlns="http://www.w3.org/2000/svg"
    >
      <path
        d="m34.21875 384.046875c11.082031 19.121094 24.71875 36.925781 40.761719 52.972656 48.355469 48.351563 112.640625 74.980469 181.019531 74.980469 68.382812 0 132.667969-26.628906 181.019531-74.980469 16.046875-16.046875 29.679688-33.851562 40.761719-52.972656 22.316406-38.503906 34.21875-82.355469 34.21875-128.046875s-11.902344-89.542969-34.21875-128.046875c-11.082031-19.121094-24.71875-36.929687-40.761719-52.972656-48.351562-48.351563-112.636719-74.980469-181.019531-74.980469-68.378906 0-132.667969 26.628906-181.019531 74.980469-16.046875 16.042969-29.683594 33.851562-40.761719 52.972656-22.316406 38.503906-34.21875 82.359375-34.21875 128.046875s11.902344 89.542969 34.21875 128.046875zm156.449219-128.046875c0-11.890625 3.207031-23.035156 8.78125-32.652344 11.3125-19.515625 32.414062-32.683594 56.550781-32.683594s45.238281 13.167969 56.554688 32.683594c5.570312 9.613282 8.78125 20.761719 8.78125 32.652344s-3.210938 23.035156-8.78125 32.648438c-11.3125 19.519531-32.417969 32.683593-56.554688 32.683593s-45.238281-13.164062-56.554688-32.683593c-5.570312-9.613282-8.777343-20.757813-8.777343-32.648438zm0 0"
        fill="#ff8398"
      />
      <path
        d="m256 416.664062v95.335938c68.382812 0 132.667969-26.628906 181.019531-74.980469 16.046875-16.046875 29.679688-33.851562 40.761719-52.972656l-82.621094-47.703125c-27.78125 48.015625-79.695312 80.320312-139.160156 80.320312zm0 0"
        fill="#54e360"
      />
      <path
        d="m416.667969 256c0 29.269531-7.832031 56.710938-21.507813 80.34375l82.621094 47.703125c22.316406-38.503906 34.21875-82.355469 34.21875-128.046875s-11.902344-89.542969-34.21875-128.046875l-82.621094 47.699219c13.675782 23.636718 21.507813 51.078125 21.507813 80.347656zm0 0"
        fill="#008adf"
      />
      <path
        d="m116.839844 336.34375-82.621094 47.703125c11.082031 19.121094 24.71875 36.925781 40.761719 52.972656 48.355469 48.351563 112.640625 74.980469 181.019531 74.980469v-95.335938c-59.464844 0-111.378906-32.304687-139.160156-80.320312zm0 0"
        fill="#ffd400"
      />
      <path
        d="m395.160156 175.652344 82.621094-47.699219c-11.082031-19.121094-24.71875-36.929687-40.761719-52.972656-48.351562-48.351563-112.636719-74.980469-181.019531-74.980469v95.332031c59.464844 0 111.378906 32.308594 139.160156 80.320313zm0 0"
        fill="#0065a3"
      />
      <path
        d="m34.21875 384.046875 82.621094-47.703125c-13.675782-23.632812-21.503906-51.074219-21.503906-80.34375s7.828124-56.710938 21.503906-80.34375l-82.621094-47.703125c-22.316406 38.503906-34.21875 82.359375-34.21875 128.046875s11.902344 89.542969 34.21875 128.046875zm0 0"
        fill="#ff9100"
      />
      <path
        d="m256 95.332031v-95.332031c-68.378906 0-132.667969 26.628906-181.019531 74.980469-16.046875 16.042969-29.683594 33.851562-40.761719 52.972656l82.621094 47.703125c27.78125-48.015625 79.695312-80.324219 139.160156-80.324219zm0 0"
        fill="#ff4949"
      />
      <path
        d="m321.335938 256c0 11.890625-3.210938 23.035156-8.78125 32.648438l82.605468 47.695312c13.675782-23.632812 21.507813-51.074219 21.507813-80.34375 0-29.273438-7.832031-56.710938-21.507813-80.347656l-82.605468 47.695312c5.570312 9.613282 8.78125 20.761719 8.78125 32.652344zm0 0"
        fill="#0065a3"
      />
      <path
        d="m312.554688 223.347656 82.605468-47.691406c-27.78125-48.015625-79.695312-80.324219-139.160156-80.324219v95.332031c24.136719 0 45.238281 13.167969 56.554688 32.683594zm0 0"
        fill="#005183"
      />
      <path
        d="m256 321.332031v95.332031c59.464844 0 111.378906-32.304687 139.160156-80.320312l-82.605468-47.691406c-11.3125 19.515625-32.417969 32.679687-56.554688 32.679687zm0 0"
        fill="#00ab5e"
      />
      <path
        d="m256 416.664062v-95.332031c-24.136719 0-45.238281-13.164062-56.554688-32.683593l-82.605468 47.695312c27.78125 48.015625 79.695312 80.320312 139.160156 80.320312zm0 0"
        fill="#ff9f04"
      />
      <path
        d="m190.667969 256c0-11.890625 3.207031-23.035156 8.78125-32.652344l-82.609375-47.691406c-13.675782 23.632812-21.503906 51.074219-21.503906 80.34375s7.828124 56.710938 21.503906 80.34375l82.605468-47.695312c-5.570312-9.613282-8.777343-20.757813-8.777343-32.648438zm0 0"
        fill="#ff4b00"
      />
      <path
        d="m256 190.664062v-95.332031c-59.464844 0-111.378906 32.308594-139.160156 80.324219l82.609375 47.691406c11.3125-19.515625 32.414062-32.683594 56.550781-32.683594zm0 0"
        fill="#e80048"
      />
    </svg>